<svg xmlns="http://www.w3.org/2000/svg" width="997.832" height="257" viewBox="0 0 997.832 257">
  <g id="chakra-brands" transform="translate(0 0)">
    <path id="Path_1" data-name="Path 1" d="M388.5,115.3c17.612,0,25.466,11.424,28.084,21.658l24.752-9.044c-4.76-18.564-21.9-38.08-53.074-38.08-33.32,0-59.262,25.7-59.262,61.4,0,35.224,25.942,61.642,59.976,61.642,30.464,0,47.838-19.754,53.312-37.842l-24.276-8.806c-2.618,8.806-10.948,21.42-29.036,21.42-17.374,0-32.368-13.09-32.368-36.414S371.6,115.3,388.5,115.3Zm96.394,25.942c.476-14.756,8.806-26.18,24.038-26.18,17.374,0,23.8,11.424,23.8,25.7v68.544H560.34v-73.3c0-25.466-13.8-45.934-42.364-45.934-12.138,0-25.228,4.284-33.082,14.518V37H457.286V209.312h27.608V141.244Zm92.4,36.652c0,18.326,14.994,34.986,39.27,34.986,18.8,0,30.226-9.52,35.7-18.326,0,9.282.952,14.042,1.19,14.756h25.7a105.125,105.125,0,0,1-1.428-18.564v-57.6c0-23.086-13.566-43.316-49.266-43.316-28.56,0-46.648,17.85-48.79,37.842L604.9,133.39c1.19-11.662,9.282-20.944,23.8-20.944,15.232,0,21.9,7.854,21.9,17.612,0,4.046-1.9,7.378-8.568,8.33l-29.75,4.522c-19.754,2.856-34.986,14.28-34.986,34.986ZM621.8,191.224c-10.948,0-16.9-7.14-16.9-14.994,0-9.52,6.9-14.28,15.47-15.708L650.594,156v5.236c0,22.61-13.328,29.988-28.8,29.988ZM810.108,93.406H773.456L728.95,140.292V37H701.58V209.312h27.37V176.944l14.28-14.994,34.034,47.362h33.8l-48.552-66.878,47.6-49.028Zm79.241-.714a39.532,39.532,0,0,0-7.378-.714c-15.232,0-28.084,7.378-33.558,19.992V93.406H821.519V209.312h27.608V154.1c0-21.658,9.758-34.034,31.178-34.034a60.246,60.246,0,0,1,9.044.714Zm6.619,85.2c0,18.326,14.994,34.986,39.27,34.986,18.8,0,30.226-9.52,35.7-18.326,0,9.282.952,14.042,1.19,14.756h25.7a105.125,105.125,0,0,1-1.428-18.564v-57.6c0-23.086-13.566-43.316-49.266-43.316-28.56,0-46.648,17.85-48.79,37.842l25.228,5.712c1.19-11.662,9.282-20.944,23.8-20.944,15.232,0,21.9,7.854,21.9,17.612,0,4.046-1.9,7.378-8.568,8.33l-29.75,4.522c-19.754,2.856-34.986,14.28-34.986,34.986Zm44.506,13.328c-10.948,0-16.9-7.14-16.9-14.994,0-9.52,6.9-14.28,15.47-15.708L969.272,156v5.236C969.272,183.846,955.944,191.224,940.474,191.224Z" fill="#FFF"/>
    <path id="Subtraction_1" data-name="Subtraction 1" d="M-226.5-293a129.45,129.45,0,0,1-25.9-2.611,127.851,127.851,0,0,1-24.121-7.487,128.511,128.511,0,0,1-21.827-11.847,129.425,129.425,0,0,1-19.017-15.691,129.425,129.425,0,0,1-15.691-19.018A128.513,128.513,0,0,1-344.9-371.482a127.849,127.849,0,0,1-7.487-24.121A129.451,129.451,0,0,1-355-421.5a129.452,129.452,0,0,1,2.611-25.9,127.851,127.851,0,0,1,7.487-24.121,128.516,128.516,0,0,1,11.847-21.828,129.427,129.427,0,0,1,15.691-19.018,129.424,129.424,0,0,1,19.017-15.691A128.509,128.509,0,0,1-276.518-539.9a127.854,127.854,0,0,1,24.121-7.488A129.446,129.446,0,0,1-226.5-550a129.447,129.447,0,0,1,25.9,2.611,127.855,127.855,0,0,1,24.121,7.488,128.509,128.509,0,0,1,21.828,11.848,129.429,129.429,0,0,1,19.018,15.691,129.426,129.426,0,0,1,15.691,19.018A128.516,128.516,0,0,1-108.1-471.518a127.851,127.851,0,0,1,7.488,24.121A129.445,129.445,0,0,1-98-421.5a129.445,129.445,0,0,1-2.611,25.9,127.847,127.847,0,0,1-7.488,24.121,128.513,128.513,0,0,1-11.848,21.827,129.428,129.428,0,0,1-15.691,19.018,129.425,129.425,0,0,1-19.018,15.691A128.514,128.514,0,0,1-176.482-303.1a127.852,127.852,0,0,1-24.121,7.487A129.45,129.45,0,0,1-226.5-293Zm30.038-210.6a1.946,1.946,0,0,0-1.387.6l-87.593,86.989a1.969,1.969,0,0,0-.439,2.182,1.968,1.968,0,0,0,1.849,1.238h59.611a1.966,1.966,0,0,1,1.781,1.091,1.966,1.966,0,0,1-.162,2.083l-46.735,64.472a1.91,1.91,0,0,0-.194,2.045,2.115,2.115,0,0,0,1.828,1.153,1.963,1.963,0,0,0,1.349-.562l98.728-92.142a1.964,1.964,0,0,0,.5-2.2,1.964,1.964,0,0,0-1.86-1.266h-56.34a1.983,1.983,0,0,1-1.72-.98,1.982,1.982,0,0,1-.035-1.978l32.6-59.752a1.929,1.929,0,0,0-.007-1.949A2.106,2.106,0,0,0-196.463-503.6Z" transform="translate(355 550)" fill="#FFF"/>
  </g>
</svg>
