<svg xmlns="http://www.w3.org/2000/svg" width="568.017" height="147.678" viewBox="0 0 568.017 147.678">
  <g id="mongodb" transform="translate(0.004)">
    <path id="Path_5" data-name="Path 5" d="M66.529,59.128C58.577,24.594,41.991,15.393,37.788,8.918A69.73,69.73,0,0,1,33.187,0c-.227,3.067-.625,5-3.294,7.327C24.554,11.985,2,30.1.073,69.352c-1.761,36.579,27.321,59.128,31.183,61.457,2.954,1.42,6.532,0,8.293-1.306,14.029-9.486,33.171-34.7,26.98-70.374" transform="translate(0)" fill="#fff"/>
    <path id="Path_6" data-name="Path 6" d="M8.618,19.5C7.879,28.474,7.311,33.7,5.38,38.812c0,0,1.306,8.577,2.158,17.608h3.181a154.416,154.416,0,0,1,3.408-18.971C10.094,35.574,8.788,27.4,8.618,19.5Z" transform="translate(25.195 91.259)" fill="#fff"/>
    <path id="Path_7" data-name="Path 7" d="M12.038,129.219h0c-3.919-1.818-5.055-10.281-5.226-18.176a376.857,376.857,0,0,0,.852-39.248C7.437,64.979,7.778,8.293,5.96,0c1.25,2.783,2.67,5.51,4.2,8.179,4.2,6.532,20.618,15.733,28.457,50.438C44.754,94.344,25.9,119.62,12.038,129.219Z" transform="translate(27.909)" fill="#fff"/>
    <path id="Path_8" data-name="Path 8" d="M105.667,34.971a8.634,8.634,0,1,1,6.248-2.556,8.855,8.855,0,0,1-6.248,2.556Zm0-16.585a7.88,7.88,0,0,0-5.68,13.461,7.991,7.991,0,0,0,8.634,1.761,7.894,7.894,0,0,0,4.941-7.327,7.5,7.5,0,0,0-2.272-5.623,7.714,7.714,0,0,0-5.623-2.272Zm2.1,13.348-2.215-4.828h-1.818v4.828h-1.363V20.771h3.294c2.386,0,3.408,1.022,3.408,3.067a2.719,2.719,0,0,1-2.158,2.954l2.329,4.942Zm-4.033-5.964h1.931c1.534,0,2.158-.511,2.158-1.931,0-1.363-.568-1.874-2.329-1.874h-1.761Z" transform="translate(453.596 82.32)" fill="#fff"/>
    <path id="Path_9" data-name="Path 9" d="M95.823,69.2c2.329,1.818,6.986,2.613,11.076,2.613,5.282,0,10.451-1.022,15.506-5.566,5.169-4.714,8.747-11.871,8.747-23.345,0-10.962-4.2-19.937-12.78-25.162-4.885-3.01-11.189-4.2-18.346-4.2-2.045,0-4.2.057-5.4.625a2.641,2.641,0,0,0-.966,1.534c-.227,1.988-.227,16.926-.227,25.73,0,9.031,0,21.641.227,23.174.114,1.363.738,3.635,2.158,4.6M73.842,8.6c1.874,0,8.974.341,12.325.341,6.191,0,10.451-.341,22.038-.341,9.713,0,17.835,2.613,23.685,7.611,7.1,6.134,10.849,14.654,10.849,24.992,0,14.711-6.7,23.174-13.461,28-6.7,5-15.449,7.838-27.889,7.838-6.589,0-17.949-.227-27.434-.341h-.17c-.454-.852.8-4.26,1.534-4.374a15.368,15.368,0,0,0,4.487-.852c1.988-.852,2.442-1.874,2.67-5.453.341-6.759.227-14.825.227-23.969,0-6.532.114-19.255-.114-23.288-.341-3.408-1.761-4.26-4.658-4.942-2.045-.4-4.09-.738-6.191-.966-.17-.625,1.477-3.578,2.045-4.26" transform="translate(335.698 40.247)" fill="#fff"/>
    <path id="Path_10" data-name="Path 10" d="M106.814,13.939a2.464,2.464,0,0,0-.966,1.761c-.114,3.919-.227,14.143-.227,21.186a.73.73,0,0,0,.568.568c1.42.114,4.942.227,7.9.227,4.146,0,6.532-.568,7.9-1.193,3.465-1.761,5.112-5.566,5.112-9.713,0-9.486-6.589-13.064-16.358-13.064a30.231,30.231,0,0,0-3.919.227m24.878,43.508c0-9.542-7.043-15-19.823-15a48.022,48.022,0,0,0-5.623.114c-.284.114-.625.284-.625.511,0,6.873-.114,17.835.227,22.209.227,1.818,1.534,4.43,3.181,5.226,1.7.966,5.68,1.193,8.406,1.193,7.554,0,14.257-4.26,14.257-14.257M87.048,8.6c.966,0,3.919.341,11.36.341,6.986,0,12.666-.227,19.482-.227,8.406,0,20.05,3.067,20.05,15.677,0,6.191-4.374,11.189-10.11,13.575-.284.114-.284.341,0,.454,8.122,2.045,15.222,7.043,15.222,16.642,0,9.372-5.794,15.222-14.2,18.914-5.169,2.272-11.53,3.067-17.949,3.067-4.942,0-18.176-.511-25.5-.454-.738-.341.682-3.806,1.363-4.374a17.936,17.936,0,0,0,4.942-.738c2.67-.682,2.954-1.534,3.294-5.453.227-3.351.227-15.449.227-24.026,0-11.757.114-19.653,0-23.572-.114-3.067-1.193-4.033-3.294-4.6-1.647-.341-4.374-.625-6.589-.966-.511-.568,1.136-3.806,1.7-4.26" transform="translate(398.717 40.247)" fill="#fff"/>
    <path id="Path_11" data-name="Path 11" d="M16.8,58.23a5.033,5.033,0,0,1-.341-2.215,3.314,3.314,0,0,1,.341-1.477q2.13-.341,4.26-.852c1.988-.511,2.726-1.59,2.84-4.09.284-5.907.341-16.926.227-24.708v-.227a3.067,3.067,0,0,0-1.079-2.783,22.5,22.5,0,0,0-5.85-2.613c-.909-.284-1.477-.738-1.42-1.306,0-.568.625-1.25,1.818-1.477,3.238-.341,11.644-2.329,14.938-3.862a2.14,2.14,0,0,1,.454,1.534,6.959,6.959,0,0,1-.114,1.079,35.167,35.167,0,0,0-.17,3.578.734.734,0,0,0,.511.682.923.923,0,0,0,.852-.17c6.3-4.942,11.928-6.7,14.825-6.7,4.771,0,8.463,2.272,11.3,6.93a.866.866,0,0,0,.682.4.625.625,0,0,0,.568-.341c5.794-4.374,11.53-6.986,15.393-6.986,9.031,0,14.484,6.759,14.484,18.119,0,3.238-.057,7.384-.057,11.246-.057,3.408-.057,6.589-.057,8.747a2.918,2.918,0,0,0,1.761,2.329,26.394,26.394,0,0,0,5.68,1.42h.114a9,9,0,0,1-.568,3.692c-.625,0-1.477-.057-2.5-.114-1.874-.114-4.487-.227-7.441-.227-6.078,0-9.2.114-12.212.284a8.694,8.694,0,0,1,0-3.635c1.193-.227,2.442-.511,3.692-.852C81.6,53,82.172,52.152,82.285,49.6c.057-1.818.4-17.721-.227-21.47a9.64,9.64,0,0,0-10-8.52,17.282,17.282,0,0,0-9.94,3.806,1.34,1.34,0,0,0-.4.909v.057a39.315,39.315,0,0,1,.454,8.066V38.8c-.057,4.374-.057,8.52,0,11.7,0,2.1,1.306,2.613,2.329,3.01.568.17,1.022.227,1.477.341a30.865,30.865,0,0,0,3.124.682,6.31,6.31,0,0,1-.057,2.726,2.893,2.893,0,0,1-.4.966C65.3,58.116,61.838,58,56.9,58c-1.477,0-3.976.057-6.134.114-1.761.057-3.408.114-4.374.114a5.531,5.531,0,0,1-.341-1.931,3.651,3.651,0,0,1,.4-1.761l1.306-.227c1.193-.227,2.158-.4,3.124-.625,1.647-.568,2.272-1.42,2.386-3.522.284-4.885.568-18.914-.114-22.379-1.193-5.68-4.43-8.52-9.6-8.52-3.01,0-6.816,1.477-9.94,3.806a2.8,2.8,0,0,0-.909,2.215V31.08c0,7.043-.057,15.847.114,19.653a3.049,3.049,0,0,0,2.726,3.01,17.4,17.4,0,0,0,2.272.454c.568.114,1.136.227,1.761.341a7.453,7.453,0,0,1-.284,3.692c-.966,0-2.158-.057-3.522-.114-2.045-.114-4.658-.227-7.611-.227-3.465,0-5.85.114-7.782.227-1.306.057-2.442.114-3.578.114" transform="translate(73.816 59.061)" fill="#fff"/>
    <path id="Path_12" data-name="Path 12" d="M52.348,17.164a9.138,9.138,0,0,0-5.226,1.477c-3.806,2.272-5.737,6.816-5.737,13.575,0,12.553,6.362,21.357,15.506,21.357a10.01,10.01,0,0,0,6.7-2.386c2.783-2.215,4.317-6.873,4.317-13.291,0-12.382-6.248-20.732-15.563-20.732M54.109,58.23c-16.472,0-22.379-11.985-22.379-23.117,0-7.838,3.238-13.916,9.6-18.176A29.818,29.818,0,0,1,56.211,12.62c12.609,0,21.413,8.918,21.413,21.7,0,8.747-3.522,15.563-10.167,19.88-3.181,1.931-8.747,4.033-13.348,4.033" transform="translate(148.511 59.061)" fill="#fff"/>
    <path id="Path_13" data-name="Path 13" d="M82.158,17.164a8.9,8.9,0,0,0-5.226,1.477c-3.862,2.272-5.794,6.816-5.794,13.575,0,12.553,6.362,21.357,15.506,21.357A10.054,10.054,0,0,0,93.4,51.187c2.783-2.215,4.26-6.873,4.26-13.291,0-12.382-6.191-20.732-15.506-20.732M83.919,58.23C67.39,58.23,61.54,46.245,61.54,35.113c0-7.838,3.238-13.916,9.6-18.176A29.818,29.818,0,0,1,86.021,12.62c12.609,0,21.413,8.918,21.413,21.7,0,8.747-3.522,15.563-10.167,19.88-3.238,1.931-8.747,4.033-13.348,4.033" transform="translate(288.02 59.061)" fill="#fff"/>
    <path id="Path_14" data-name="Path 14" d="M71.118,16.766c-5.112,0-8.463,4.033-8.463,10.167S65.5,40.395,73.561,40.395a7.83,7.83,0,0,0,5.169-1.931c1.874-1.7,3.124-5.169,3.124-8.861,0-8.009-3.976-12.837-10.678-12.837m-.682,42.543a8.622,8.622,0,0,0-4.146,1.022c-4.09,2.556-6.021,5.112-6.021,8.066a8.733,8.733,0,0,0,3.465,6.93c2.9,2.386,6.759,3.522,11.814,3.522,10.053,0,14.484-5.282,14.484-10.451,0-3.635-1.818-6.078-5.68-7.441-2.954-1.079-7.9-1.647-13.916-1.647M71.175,84.3c-6.021,0-10.337-1.25-14.029-4.033a12.906,12.906,0,0,1-5.226-9.542A7.361,7.361,0,0,1,53.908,65.9c1.022-1.136,3.465-3.351,9.088-7.1a.45.45,0,0,0,.284-.454.564.564,0,0,0-.341-.454c-4.658-1.7-6.021-4.544-6.475-6.078v-.227a1.328,1.328,0,0,1,.568-1.761,28.789,28.789,0,0,1,2.783-1.7A45.953,45.953,0,0,0,64.3,45.28a.813.813,0,0,0,.17-.625.723.723,0,0,0-.4-.511c-6.816-2.215-10.224-7.214-10.224-14.768a14.5,14.5,0,0,1,6.3-12.1c2.726-2.1,9.6-4.658,14.086-4.658h.284a29.544,29.544,0,0,1,10.735,2.329,16.219,16.219,0,0,0,6.362.966c3.806,0,5.453-1.136,6.93-2.5a5.221,5.221,0,0,1,.341,1.874,6.855,6.855,0,0,1-1.25,4.43,5.531,5.531,0,0,1-4.26,1.818h-.511a13.233,13.233,0,0,1-2.613-.454l-.454.17c-.114.17-.057.4.057.682a.209.209,0,0,1,.057.17,20.318,20.318,0,0,1,.625,4.146c0,7.9-3.181,11.36-6.646,13.916a22.331,22.331,0,0,1-11.473,4.317h0c-.057,0-.511.057-1.306.114-.511.057-1.193.114-1.306.114H69.7c-.738.227-2.67,1.136-2.67,2.84,0,1.363.852,3.124,5.112,3.465l2.726.17c5.566.4,12.553.852,15.847,1.931a10.718,10.718,0,0,1,7.327,10.337c0,7.1-5.169,13.8-13.8,17.892a30.588,30.588,0,0,1-13.064,2.84" transform="translate(242.999 59.061)" fill="#fff"/>
    <path id="Path_15" data-name="Path 15" d="M95.549,53.913A19.845,19.845,0,0,1,89.3,52.266a2.518,2.518,0,0,1-.8-1.534c-.227-3.294-.227-13.007-.227-19.369,0-5.169-.852-9.713-3.067-12.95A13.255,13.255,0,0,0,74.022,12.62c-4.26,0-9.94,2.9-14.654,6.873-.114.114-.852.8-.852-.284.057-1.022.227-3.181.284-4.544a2.455,2.455,0,0,0-.682-2.045c-3.067,1.534-11.7,3.578-14.938,3.919-2.329.454-2.9,2.67-.4,3.465h0a20.95,20.95,0,0,1,5.68,2.442,2.916,2.916,0,0,1,.852,2.67c.114,7.27.114,18.346-.227,24.367-.114,2.386-.738,3.238-2.5,3.692l.17-.057a34.36,34.36,0,0,1-4.09.738c-.511.568-.511,3.692,0,4.317,1.136,0,6.7-.284,11.3-.284,6.362,0,9.656.284,11.3.284a6.054,6.054,0,0,0,.4-4.317,24.374,24.374,0,0,1-4.487-.625c-1.761-.454-2.158-1.306-2.272-3.238-.227-5.055-.227-15.847-.227-23.174,0-2.045.511-3.01,1.193-3.578A14.546,14.546,0,0,1,68.854,20a9.869,9.869,0,0,1,6.7,2.272,9.334,9.334,0,0,1,3.124,6.078c.454,4.09.341,12.325.341,19.425,0,3.862-.341,4.828-1.761,5.282a21.42,21.42,0,0,1-4.487.852c-.682.625-.454,3.635,0,4.317,2.84,0,6.134-.341,10.962-.341,6.021,0,9.826.341,11.36.341a5.794,5.794,0,0,0,.454-4.317" transform="translate(192.611 59.061)" fill="#fff"/>
  </g>
</svg>
