<svg xmlns="http://www.w3.org/2000/svg" width="445.581" height="434.443" viewBox="0 0 445.581 434.443">
  <g id="xd-brands" transform="translate(-11 -11)">
    <path id="Subtraction_2" data-name="Subtraction 2" d="M-835.253,270.885h-287.775a79.72,79.72,0,0,1-15.917-1.6,78.571,78.571,0,0,1-14.818-4.592,78.828,78.828,0,0,1-13.4-7.268,79.311,79.311,0,0,1-11.674-9.629,79.325,79.325,0,0,1-9.629-11.674,78.837,78.837,0,0,1-7.268-13.4,78.562,78.562,0,0,1-4.592-14.818,79.718,79.718,0,0,1-1.6-15.917V-84.654a79.719,79.719,0,0,1,1.6-15.917,78.565,78.565,0,0,1,4.592-14.818,78.834,78.834,0,0,1,7.268-13.4,79.326,79.326,0,0,1,9.629-11.674,79.313,79.313,0,0,1,11.674-9.629,78.821,78.821,0,0,1,13.4-7.268,78.564,78.564,0,0,1,14.818-4.592,79.719,79.719,0,0,1,15.917-1.6h287.775a79.721,79.721,0,0,1,15.917,1.6,78.563,78.563,0,0,1,14.818,4.592,78.829,78.829,0,0,1,13.4,7.268,79.319,79.319,0,0,1,11.674,9.629,79.322,79.322,0,0,1,9.629,11.674,78.831,78.831,0,0,1,7.268,13.4,78.566,78.566,0,0,1,4.592,14.818,79.72,79.72,0,0,1,1.6,15.917V191.982a79.719,79.719,0,0,1-1.6,15.917,78.563,78.563,0,0,1-4.592,14.818,78.834,78.834,0,0,1-7.268,13.4,79.32,79.32,0,0,1-9.629,11.674,79.317,79.317,0,0,1-11.674,9.629,78.834,78.834,0,0,1-13.4,7.268,78.568,78.568,0,0,1-14.818,4.592A79.721,79.721,0,0,1-835.253,270.885ZM-890.206-7.051A79.108,79.108,0,0,0-921.1-1.1a67.8,67.8,0,0,0-23.451,16.347,72.349,72.349,0,0,0-14.89,24.458A87.239,87.239,0,0,0-964.654,70c0,12.273,1.707,23.374,5.085,32.994a63.508,63.508,0,0,0,14.211,23.5,58.737,58.737,0,0,0,21.732,14.055,78.61,78.61,0,0,0,27.65,4.671h.389a110.472,110.472,0,0,0,23.768-2.6,110.874,110.874,0,0,0,23.767-8.169c1.128-.583,1.479-.942,1.479-2.051a132.559,132.559,0,0,1-.925-18.2V-56.244c0-1.051-.537-1.48-1.855-1.48h-29.336a1.859,1.859,0,0,0-1.855,1.855V-6.676A81.2,81.2,0,0,0-890.206-7.051ZM-1047.5,64.812c9.31,19.73,18.494,38.59,27.375,56.829,2.956,6.071,6.013,12.349,9.02,18.546a3.637,3.637,0,0,0,3.9,2.408h32.314a1.488,1.488,0,0,0,1.379-.736,2.236,2.236,0,0,0-.255-2.242l-51.992-99.881L-976.523-55.3a1.933,1.933,0,0,0,.3-1.935,1.523,1.523,0,0,0-1.423-.668h-29.89c-1.844,0-2.4.881-3.309,2.339l-.043.068c-10.625,22.453-22.994,48.835-34.167,74.27h-.373c-9.5-21.06-20.535-44.716-34.721-74.448-.7-1.61-1.417-2.051-3.332-2.051h-31.94a1.611,1.611,0,0,0-1.435.836,1.663,1.663,0,0,0,.332,1.767l49.191,98.027-50.869,96.925a1.8,1.8,0,0,0-.445,1.853,1.574,1.574,0,0,0,1.551.749h30.6a3.6,3.6,0,0,0,3.352-2.05c12.439-25.684,24.636-51.816,35.273-75.571h.374Zm154.136,51.636a39.25,39.25,0,0,1-14.741-2.681,31.589,31.589,0,0,1-11.975-8.461,40.314,40.314,0,0,1-8.041-14.868,74.217,74.217,0,0,1-2.94-21.9c0-14.478,3.834-26.64,11.088-35.169a35.3,35.3,0,0,1,12.56-9.459,39.137,39.137,0,0,1,16.08-3.28,28.189,28.189,0,0,1,10.765,1.852h.018V114.4C-883.664,115.719-888.215,116.447-893.36,116.447Z" transform="translate(1212.931 174.558)" fill="#c1c1c1"/>
    <path id="Subtraction_1" data-name="Subtraction 1" d="M-860.883,233.74h-273.659a66.716,66.716,0,0,1-26.192-5.309,67.535,67.535,0,0,1-11.445-6.225,68.151,68.151,0,0,1-9.979-8.239,68.147,68.147,0,0,1-8.239-9.979,67.528,67.528,0,0,1-6.224-11.445,66.715,66.715,0,0,1-5.309-26.192V-96.17a66.715,66.715,0,0,1,5.309-26.192,67.528,67.528,0,0,1,6.224-11.445,68.147,68.147,0,0,1,8.239-9.979,68.151,68.151,0,0,1,9.979-8.239,67.535,67.535,0,0,1,11.445-6.225,66.716,66.716,0,0,1,26.192-5.309h273.481a66.988,66.988,0,0,1,26.274,5.309,67.319,67.319,0,0,1,11.449,6.225,67.833,67.833,0,0,1,9.967,8.239,67.9,67.9,0,0,1,8.217,9.979,67.452,67.452,0,0,1,6.2,11.445,66.975,66.975,0,0,1,5.281,26.192V166.173a66.737,66.737,0,0,1-5.2,26.275,67.253,67.253,0,0,1-6.183,11.47,67.813,67.813,0,0,1-8.206,10,67.844,67.844,0,0,1-9.97,8.264,67.315,67.315,0,0,1-11.445,6.24A66.644,66.644,0,0,1-860.883,233.74Zm-47.9-259.364a79.108,79.108,0,0,0-30.9,5.956A67.8,67.8,0,0,0-963.126-3.321a72.346,72.346,0,0,0-14.89,24.458,87.238,87.238,0,0,0-5.211,30.288c0,12.273,1.707,23.374,5.085,32.994a63.508,63.508,0,0,0,14.21,23.5A58.738,58.738,0,0,0-942.2,121.971a78.61,78.61,0,0,0,27.65,4.671h.389a110.473,110.473,0,0,0,23.768-2.6,110.874,110.874,0,0,0,23.766-8.169c1.128-.583,1.479-.942,1.479-2.051a132.568,132.568,0,0,1-.925-18.2V-74.816c0-1.051-.537-1.48-1.855-1.48h-29.336a1.859,1.859,0,0,0-1.855,1.855v49.192A81.2,81.2,0,0,0-908.779-25.624Zm-157.289,71.863c9.3,19.715,18.486,38.573,27.366,56.809l.008.016c2.8,5.757,5.981,12.282,9.021,18.549a3.637,3.637,0,0,0,3.9,2.408h32.314a1.488,1.488,0,0,0,1.379-.736,2.236,2.236,0,0,0-.255-2.242l-51.992-99.881L-995.1-73.871a1.933,1.933,0,0,0,.3-1.935,1.523,1.523,0,0,0-1.423-.668h-29.89c-1.844,0-2.4.881-3.31,2.341l-.042.066C-1040.094-51.595-1052.469-25.2-1063.626.2H-1064c-12.484-27.668-25.795-55.74-34.721-74.448-.7-1.61-1.417-2.051-3.332-2.051h-31.94a1.612,1.612,0,0,0-1.436.836,1.664,1.664,0,0,0,.331,1.767l49.192,98.027-50.869,96.925a1.8,1.8,0,0,0-.445,1.853,1.574,1.574,0,0,0,1.551.749h30.6a3.6,3.6,0,0,0,3.352-2.05c12.44-25.686,24.638-51.819,35.273-75.571h.374Zm154.136,51.636a39.25,39.25,0,0,1-14.741-2.681,31.59,31.59,0,0,1-11.975-8.461,40.318,40.318,0,0,1-8.041-14.868,74.219,74.219,0,0,1-2.94-21.9c0-14.479,3.834-26.64,11.088-35.169a35.3,35.3,0,0,1,12.56-9.459,39.137,39.137,0,0,1,16.08-3.28,28.188,28.188,0,0,1,10.765,1.852h.018V95.824C-902.237,97.147-906.787,97.875-911.932,97.875Z" transform="translate(1231.504 193.13)" fill="#393939"/>
  </g>
</svg>
